<?xml version="1.0" encoding="UTF-8" standalone="no"?>
<!-- Created with Inkscape (http://www.inkscape.org/) -->

<svg
   version="1.1"
   id="svg9"
   width="278.88617"
   height="55.370998"
   viewBox="0 0 278.88617 55.370998"
   xml:space="preserve"
   xmlns="http://www.w3.org/2000/svg"
   xmlns:svg="http://www.w3.org/2000/svg"><defs
     id="defs13" /><g
     id="g15"
     transform="translate(-4.3398231,-13.403534)"><path
       style="fill:#6365f1;stroke:none;stroke-width:0.107632"
       d="m 11.175991,13.640102 c -3.5712413,0.486122 -6.2136363,3.149119 -6.6425184,6.735115 -0.4169979,3.486654 -0.030731,7.249946 -0.030731,10.763304 v 21.526597 6.565614 c 0,2.224775 -0.020349,4.336428 1.3140161,6.242718 2.849574,4.071 7.9142323,3.228986 12.2477413,3.228986 h 23.679261 7.426677 c 1.494486,0 3.046337,0.12561 4.520587,-0.157248 3.270965,-0.627611 5.771068,-3.647362 5.915618,-6.946529 0.467772,-10.681286 0.0042,-21.489359 0.0042,-32.182267 0,-4.145702 1.038552,-9.67988 -1.72256,-13.131142 -2.906018,-3.632372 -8.168734,-2.690911 -12.26977,-2.690911 H 22.692705 c -3.74003,0 -7.81324,-0.458359 -11.516729,0.04576 M 23.984303,23.95784 c 1.679934,-0.200908 3.4745,-0.03074 5.166382,-0.03074 1.752481,0 3.646608,-0.202469 5.381652,0.0461 3.024379,0.433298 6.064042,2.518902 7.333574,5.335551 0.766991,1.701572 0.738899,3.449422 0.738899,5.274018 0,0.634172 -0.257782,2.001329 0.110641,2.536477 0.327206,0.475417 1.720084,0.296746 2.257279,0.397708 1.378133,0.258964 2.622266,0.875917 3.349864,2.124566 1.048777,1.799626 0.955458,4.017939 0.955458,6.027449 0,1.9403 0.06168,3.818494 -0.476493,5.704548 -1.038763,3.639824 -4.178203,6.327207 -7.918881,6.857837 -2.563926,0.363585 -5.270142,0.138303 -7.857211,0.138303 -5.570436,0 -12.452383,1.145216 -16.235791,-3.982421 -2.411293,-3.267955 -1.954186,-7.368769 -1.954186,-11.193832 0,-6.277695 -1.499187,-15.166458 5.596917,-18.312463 1.127564,-0.499957 2.330362,-0.777025 3.55189,-0.923117 m 1.399228,8.630286 c -2.162239,0.40868 -2.632165,3.475361 -0.645798,4.470214 0.77851,0.389846 1.844828,0.215265 2.690825,0.215265 h 4.520587 c 0.710915,0 1.572519,0.130122 2.260295,-0.06867 2.026727,-0.585846 2.206043,-3.561253 0.322898,-4.431572 -0.869138,-0.401689 -1.973452,-0.23561 -2.906092,-0.23561 -1.989704,0 -4.287885,-0.319239 -6.242715,0.05038 m -0.215264,12.492329 c -2.18,0.519435 -2.243183,3.735618 -0.215267,4.510362 0.988071,0.377467 2.295381,0.168227 3.336622,0.168227 h 6.996145 c 1.190314,0 2.74787,0.262195 3.874788,-0.168227 2.027914,-0.774744 1.964733,-3.990927 -0.215265,-4.510362 -1.598996,-0.380921 -3.630679,-0.05725 -5.274018,-0.05725 h -5.704549 c -0.887864,0 -1.931687,-0.14918 -2.798456,0.05724 z"
       id="path974" /><text
       xml:space="preserve"
       style="font-style:normal;font-variant:normal;font-weight:normal;font-stretch:normal;font-size:40px;font-family:Poppins;-inkscape-font-specification:Poppins;fill:#000000;stroke-width:67.2113;paint-order:stroke fill markers"
       x="68.865952"
       y="56.210487"
       id="text229"><tspan
         id="tspan227"
         x="68.865952"
         y="56.210487">MovieKa14</tspan></text></g></svg>
