<?xml version="1.0" encoding="UTF-8" standalone="no"?>
<!-- Created with Inkscape (http://www.inkscape.org/) -->

<svg
   version="1.1"
   id="svg9"
   width="133"
   height="24.51516"
   viewBox="0 0 133 24.51516"
   sodipodi:docname="Black White Minimalist Simple Aesthetic Modern Typography Velvet Cosmetics Logo.svg"
   inkscape:version="1.2.2 (732a01da63, 2022-12-09)"
   inkscape:export-filename="gitlog.svg"
   inkscape:export-xdpi="96"
   inkscape:export-ydpi="96"
   xmlns:inkscape="http://www.inkscape.org/namespaces/inkscape"
   xmlns:sodipodi="http://sodipodi.sourceforge.net/DTD/sodipodi-0.dtd"
   xmlns="http://www.w3.org/2000/svg"
   xmlns:svg="http://www.w3.org/2000/svg">
  <defs
     id="defs13" />
  <sodipodi:namedview
     id="namedview11"
     pagecolor="#ffffff"
     bordercolor="#000000"
     borderopacity="0.25"
     inkscape:showpageshadow="2"
     inkscape:pageopacity="0.0"
     inkscape:pagecheckerboard="0"
     inkscape:deskcolor="#d1d1d1"
     showgrid="false"
     inkscape:zoom="1.0729879"
     inkscape:cx="233.92621"
     inkscape:cy="260.02156"
     inkscape:window-width="1366"
     inkscape:window-height="705"
     inkscape:window-x="-8"
     inkscape:window-y="-8"
     inkscape:window-maximized="1"
     inkscape:current-layer="g15" />
  <g
     inkscape:groupmode="layer"
     inkscape:label="Image"
     id="g15"
     transform="translate(-171.82339,-235.08511)">
    <path
       style="fill:#050505;stroke:none;stroke-width:0.357044"
       d="m 244.30327,235.08511 v 12.49654 h -0.35704 c -2.71603,-4.9929 -10.77558,-3.9407 -13.21062,0.71408 h -0.35704 v -3.57043 l -8.42981,0.36704 -3.70968,7.13088 -3.21339,-7.49792 h -6.06975 l 0.71409,1.78522 c -4.66228,-3.48439 -9.94367,-2.46753 -13.92471,1.42817 -1.2825,-4.55659 -7.16229,-4.40628 -9.64018,-1.07113 h -0.35704 c -2.50752,-3.36728 -6.13533,-2.7878 -9.28314,-0.71409 v -1.42817 h -4.64157 v 14.28175 h 4.64157 c 0,-2.30972 -1.22577,-10.54815 2.49931,-10.54815 3.76717,0 2.4993,8.20737 2.4993,10.54815 h 4.99862 c 0,-2.29508 -1.27679,-10.27429 2.14262,-10.51637 3.78394,-0.26778 2.49894,8.2727 2.49894,10.51637 h 4.99862 v -2.85635 h 0.35704 c 2.57429,4.77296 10.70203,3.97568 13.8483,0.35169 1.58599,-1.827 1.50458,-3.78574 1.50458,-6.06439 h 0.35705 c 0.81156,2.75852 3.53794,10.04185 7.42186,8.35375 2.34007,-1.01722 4.75226,-7.4233 5.43171,-9.78193 h 0.35705 v 9.99723 h 4.99861 v -3.57044 h 0.35704 c 2.72675,5.21177 9.56628,4.80509 13.56766,1.42817 v 2.14227 h 4.99862 v -5.35566 c 4.1642,4.1642 5.95799,5.35566 11.78244,5.35566 l -0.71409,-1.07113 c 3.24303,1.65704 6.3004,2.04836 9.28314,-0.35705 v 1.42818 h 4.99861 c 0,-4.89436 -1.92767,-13.26168 3.2134,-15.70993 v 15.70993 h 5.35565 v -4.99862 c 1.90126,0 7.38331,-0.93438 8.55906,0.82763 0.70802,1.06078 0.36704,2.95418 0.36704,4.17099 h 4.64157 c 0,-2.14334 -0.49308,-4.57838 2.14226,-4.99862 -0.7248,3.04559 2.05907,8.03385 5.10323,4.20312 2.50502,-3.15234 -1.50066,-5.75483 -4.38914,-4.56016 v -3.92748 c -4.72441,-0.15389 -2.85635,-10.02972 -2.85635,-13.56766 l -4.88222,0.21529 -2.7346,3.35514 -5.5938,8.9261 h -0.35705 v -12.49653 c -5.55738,0.004 -9.28313,3.19589 -9.28313,8.56905 -1.42639,0 -3.92284,-0.61626 -4.28453,1.07113 -8.46515,-4.91649 -13.85829,4.04709 -9.99722,11.4254 l -4.97862,-5.7127 5.6927,-6.78383 c -5.38529,0 -7.18015,0.75336 -11.06835,4.64157 v -14.28176 h -4.99862 m -17.13274,0.99437 c -3.58186,1.20003 -1.70274,6.72492 1.76415,5.41493 3.18233,-1.20253 1.561,-6.52819 -1.76415,-5.41493 m 64.97661,7.21764 c 0,3.98318 0.73372,6.42643 -3.92748,6.42679 l 3.92748,-6.42679 m -82.12007,3.2134 -0.35704,0.35704 0.35704,-0.35704 m 30.34872,3.21339 h -5.35565 c 1.02614,-2.85349 4.13135,-2.54001 5.35565,0 m -38.1969,-0.85583 c 3.92606,-1.49673 6.50213,4.47625 2.48717,5.99619 -3.9414,1.49173 -6.45249,-4.48411 -2.48717,-5.99619 m 63.20532,-0.0314 c 3.86928,-1.2111 6.32467,4.4509 2.47717,5.97798 -4.14171,1.64347 -6.50855,-4.71619 -2.47717,-5.97798 m -21.08094,3.7436 v 2.85635 c -3.51223,-1.44746 -7.9635,1.82878 -9.64018,-2.85635 h 9.64018 m 15.70993,4.64157 0.35704,0.71409 z"
       id="path177" />
  </g>
</svg>
