<?xml version="1.0" encoding="UTF-8" standalone="no"?>
<!-- Created with Inkscape (http://www.inkscape.org/) -->

<svg
   version="1.1"
   id="svg9"
   width="233.80157"
   height="44"
   viewBox="0 0 233.80158 44"
   xml:space="preserve"
   xmlns="http://www.w3.org/2000/svg"
   xmlns:svg="http://www.w3.org/2000/svg"><defs
     id="defs13" /><g
     id="g15"
     transform="translate(-10.036085,-19.089034)"><path
       style="fill:#6365f1;stroke:none;stroke-width:0.0855287"
       d="m 15.468376,19.27702 c -2.83785,0.386292 -4.937603,2.502415 -5.27841,5.35199 -0.3313626,2.770634 -0.02442,5.761096 -0.02442,8.55295 v 17.105891 5.217298 c 0,1.767896 -0.01617,3.445899 1.04417,4.960713 2.264385,3.234979 6.288964,2.56588 9.732543,2.56588 h 18.816484 5.901532 c 1.187578,0 2.420741,0.09982 3.592238,-0.124955 2.59924,-0.498725 4.585922,-2.898339 4.700786,-5.519989 0.37171,-8.487775 0.0033,-17.0763 0.0033,-25.57331 0,-3.29434 0.825274,-7.692018 -1.368815,-10.434528 -2.309238,-2.886427 -6.491202,-2.138305 -9.750048,-2.138305 H 24.620015 c -2.971977,0 -6.208711,-0.36423 -9.151651,0.03636 m 10.178006,8.198889 c 1.334943,-0.159649 2.760977,-0.02443 4.105413,-0.02443 1.392592,0 2.89774,-0.16089 4.276475,0.03664 2.403293,0.344315 4.818729,2.001619 5.82755,4.23984 0.609482,1.352137 0.587159,2.741048 0.587159,4.190945 0,0.503938 -0.204843,1.590336 0.08792,2.015585 0.26001,0.377786 1.366846,0.235807 1.793723,0.316036 1.095119,0.205782 2.083757,0.696037 2.661935,1.688264 0.8334,1.430054 0.759245,3.192814 0.759245,4.78965 0,1.54184 0.04902,3.034327 -0.37864,4.533062 -0.825442,2.892348 -3.320167,5.02785 -6.292658,5.44951 -2.037398,0.288918 -4.187865,0.109901 -6.243653,0.109901 -4.426489,0 -9.895159,0.910033 -12.901605,-3.164591 -1.916109,-2.596846 -1.552874,-5.855517 -1.552874,-8.895063 0,-4.988508 -1.191314,-12.051872 4.447532,-14.551812 0.896008,-0.397286 1.851799,-0.617456 2.822474,-0.733547 m 1.111882,6.857969 c -1.718201,0.324755 -2.091623,2.76166 -0.513177,3.55221 0.618635,0.309788 1.465974,0.171059 2.138237,0.171059 h 3.592238 c 0.564921,0 1.249587,0.1034 1.79612,-0.05457 1.610519,-0.465537 1.753009,-2.829914 0.256588,-3.521503 -0.690652,-0.319199 -1.568184,-0.187226 -2.309296,-0.187226 -1.581098,0 -3.407325,-0.25368 -4.96071,0.04003 m -0.171057,9.926902 c -1.732315,0.412764 -1.782523,2.968471 -0.17106,3.584114 0.785161,0.29995 1.824001,0.13368 2.651413,0.13368 h 5.559415 c 0.94587,0 2.183566,0.20835 3.07906,-0.13368 1.611462,-0.615643 1.561255,-3.17135 -0.171057,-3.584114 -1.270626,-0.302694 -2.885083,-0.0455 -4.190944,-0.0455 h -4.533063 c -0.705532,0 -1.534995,-0.118544 -2.223764,0.04549 z"
       id="path974" /><text
       xml:space="preserve"
       style="font-style:normal;font-variant:normal;font-weight:normal;font-stretch:normal;font-size:32px;font-family:'Showcard Gothic';-inkscape-font-specification:'Showcard Gothic';fill:#1a1a1a;stroke-width:67.2113;paint-order:stroke fill markers"
       x="63.415791"
       y="53.049122"
       id="text229"><tspan
         id="tspan227"
         x="63.415791"
         y="53.049122">MOVIE KA14</tspan></text></g></svg>
